# xmcd
#
# Track frame offsets: 
#        150
#        12514
#        24613
#        36458
#        48834
#        79347
#        84710
#        100347
#        118620
#        125645
#        134401
#        144531
#        150691
#        155548
#        171151
#        180879
#        201595
#        209580
#        223833
#        241417
#        245403
#        250207
#        261482
#        276393
#        290025
#        301300
#        312323
#        327401
#
# Disc length: 4632 seconds
#
# Revision: 0
# Processed by: cddbd v1.5.2PL0 Copyright (c) Steve Scherf et al.
# Submitted via: ExactAudioCopy v1.0b3
#
DISCID=b712161c
DTITLE=Polskie Radio - Muzyka Zrodel - 26 - Dolny Śląsk - CD II - OBRZ
DTITLE=ĘDY
DYEAR=2008
DGENRE=Folk
TTITLE0=Aaa lulaj, lulaj
TTITLE1=W rajskim ogródku rosła lilija
TTITLE2=W małym miasteczku mieszkała Hajka
TTITLE3=Po dużym jeziorze biała gęś pływała
TTITLE4=Panieński wieczór, zebranie
TTITLE5=Spadła iskierka do ogródeczka
TTITLE6=Zasiałam se rozmaryjan
TTITLE7=Już się zebrała, już się zjechała cała familia
TTITLE8=Mazurek - Wyjechałem w pole orać
TTITLE9=Polka - Szumi gaj
TTITLE10=Hej nam hej, Dzieciątko się narodziło
TTITLE11=Pastuszkowie bracia mili
TTITLE12=Kuba wpadł do trzody
TTITLE13=W polu szopka
TTITLE14=Mom ja skarb mom, ale nie dom
TTITLE15=O, wyjdziże do nas panie gospodarzu
TTITLE16=Po nagabu panie gospodarzu
TTITLE17=Alom besper rozgloryja
TTITLE18=Sioła jelinia
TTITLE19=Polka
TTITLE20=Kołomyj ka
TTITLE21=Podziakujmy Chrystu Panu
TTITLE22=Róża w ogrodzie rozkwita
TTITLE23=Panie gospodarzu wesoło witamy
TTITLE24=Dobry wieczór panieneczka
TTITLE25=Otwieraj panie ganeczek
TTITLE26=Przecudowny święty Rochu poratuj nas
TTITLE27=Jedną garstką ziemi gdy przykryty będę
EXTD=
EXTT0=
EXTT1=
EXTT2=
EXTT3=
EXTT4=
EXTT5=
EXTT6=
EXTT7=
EXTT8=
EXTT9=
EXTT10=
EXTT11=
EXTT12=
EXTT13=
EXTT14=
EXTT15=
EXTT16=
EXTT17=
EXTT18=
EXTT19=
EXTT20=
EXTT21=
EXTT22=
EXTT23=
EXTT24=
EXTT25=
EXTT26=
EXTT27=
PLAYORDER=
